<svg id="Ebene_1" data-name="Ebene 1" xmlns="http://www.w3.org/2000/svg" viewBox="0 0 24.34 42.61"><defs><style>.cls-1{fill:#3ab183;}</style></defs><path class="cls-1" d="M17.07,44.81c-.55.33-1.53,1-1.57.95-1-1.33-2.67-2.72-2.67-4.11,0-10.48.08-21,.61-31.42C13.7,5.1,15.9,3.59,21,3.68c2.92,0,5.83.13,8.73.35,5.33.41,7.29,2.26,7.38,7.71.13,7.45,0,14.91-.23,22.36a66.61,66.61,0,0,1-1,8.66c-.38,2.36-1.67,3.77-4.32,3.49-4.84-.48-9.69-.91-14.53-1.35-.67-1.64-1.93-3.28-1.93-4.91,0-9.34.38-18.68.52-28,0-2.65,1.32-3.92,3.79-4,2.92-.09,5.84-.11,8.76,0,4.76.19,6.25,1.61,6.23,6.48,0,6.42-.34,12.83-.54,19.24-.11,3.42-1.16,6-5.47,5.7l.82.92-3.74,3.32-3.15-3.73.66-.69-4.41-.77a15.07,15.07,0,0,1,6.3-.1c5.42.9,7.57-.28,7.92-5.52.44-6.63.31-13.3.36-20,0-2.43-1.5-3.61-3.8-3.68-3.26-.1-6.53-.05-9.8-.07-1.92,0-2.62,1-2.65,2.85q-.26,14.19-.68,28.36c-.07,2.15.85,3.48,2.81,3.75A89.25,89.25,0,0,0,29.08,45c5.57.12,5.9,0,6.17-5.4.46-9.55.6-19.12.64-28.68,0-3.87-1.66-5.44-5.61-5.77-3.14-.25-6.29-.2-9.45-.22-4.37,0-6.1,1-6.3,5.19C14,20.47,14,30.86,13.83,41.24,13.76,43.18,14.53,45,17.07,44.81Z" transform="translate(-12.83 -3.68)"/></svg>