<svg id="Ebene_1" data-name="Ebene 1" xmlns="http://www.w3.org/2000/svg" viewBox="0 0 47.73 46.43"><defs><style>.cls-1{fill:#010101;}</style></defs><path class="cls-1" d="M48.61,25.29c0,13.59-9.9,23-24,22.94C10.74,48.15.94,38.47,1,24.89c0-13,10-22.58,23.14-23.08C35.17,1.39,50.07,15,48.61,25.29ZM24.54,7.54C14.7,8.17,7.89,14.08,7,22.28A17.64,17.64,0,0,0,19.61,41.47c8.65,2.44,18.76-1.95,22.32-9.78,2.38-5.23,2-10.5.59-16C40.8,9,34.44,9.33,29.81,6.85a6.52,6.52,0,0,1,2.75-.15c.84.09,1.68.23,3.12.44a21.82,21.82,0,0,0-28.5,4C.3,19.28.78,32.55,8.25,40.29s22.36,8.63,31.36,1.63c7.36-5.73,9.8-17.85,4.88-25.64.2,2.08.45,3.82.51,5.56.42,11-5.24,18.56-15.88,21.25C18.8,45.71,7.94,39,5.87,28.73,3.67,17.78,10.24,8.22,21.14,6.19c3.72-.69,4.95.6,4.79,4.24-.2,4.35-.05,8.72-.05,13.3l9.2.94a2.78,2.78,0,0,1-2.18,1c-3.15.05-6.64-1.23-8.73,2.62-.19.35-1.77-.05-2.7-.11.14-1.18,0-2.5.52-3.51S24.34,22.89,24.4,22C24.67,17.2,24.54,12.38,24.54,7.54Z" transform="translate(-0.98 -1.8)"/></svg>