<svg id="Ebene_1" data-name="Ebene 1" xmlns="http://www.w3.org/2000/svg" viewBox="0 0 31.83 46.25"><defs><style>.cls-1{fill:#3ab183;}</style></defs><path class="cls-1" d="M19.67,8.3c.88-2.43,1-4.84,2.27-5.79s3.88-.69,5.18.16c1.06.68,1,3,1.64,5.22a12.19,12.19,0,0,0,1.77.21c3.65.14,4.64,1.31,4.31,5-.17,1.91-.82,3.17-3,2.72s-3.1.44-3.19,2.51,1,2.67,2.86,2.41c2.59-.35,3.23,1.38,3.4,3.38.19,2.18-.3,3.92-3.07,4a25.1,25.1,0,0,0-3.68.67c.45,5.8-.11,6.82-3.51,6.78s-3.77-1-3.31-6.75H15.93v6.49c-2.39.08-5.51-2-5.61,2.06-.11,4.47,3.57,1.24,5.26,2.52a36.74,36.74,0,0,0,1.62,6.69c.23.55,2.57.22,4.26.31-.75-3.27-.53-5.72,3.4-5.67,3.26.05,3.9.92,3.69,5.55,1.9.27,4.18,1.7,5.18-1.15.62-1.77.34-3.86.47-5.82,4.67.44,6.12-.42,5.44-3.27a2.82,2.82,0,0,0-2-1.74c-4.46-.26-4.49-.21-3.46-5.18.27,1.36.53,2.72.79,4.07,4.89-.15,6,.61,5.86,3.84s-1.64,4.19-5.75,3.66c0,.77-.13,1.53-.15,2.29-.12,4.49-.52,4.81-4.76,4.67-2.39-.08-3.56-.8-2.8-3.38.64-2.15-.9-2.27-2.38-2.3s-3.14,0-2.67,2.08c.67,3.08-.87,3.55-3.44,3.54-2.74,0-4.23-1-4.12-3.86,0-1,.23-2.07.37-3.39-2.79.05-6.41,1.08-6.09-3.55.25-3.66,2.8-4.06,6-3.09a9.74,9.74,0,0,1-.15-2c.24-1.49.17-3.88,1-4.23,1.52-.67,3.62-.39,5.37,0,.54.12.86,1.78,1.09,2.78S22.32,33.6,23,34a3.91,3.91,0,0,0,3.54,0c.6-.38.63-2.19.39-3.24C26.06,27,29,27.3,30.93,27.22c3.1-.13,3.14-1.85,2.57-3.94-.18-.64-1.26-1.54-1.84-1.47-2.87.31-4.26-.76-4.14-3.64.12-3.09,2-3.92,4.75-3.57a11.18,11.18,0,0,0,1.64-.23c-.52-1.73-.52-4.09-1.62-4.82-1.41-.94-3.7-.58-5.9-.81A11.86,11.86,0,0,0,27,6.07c0-.93-.18-2.52-.64-2.66a7.18,7.18,0,0,0-4,0c-.51.16-1,1.89-.76,2.59,1,2.42,0,3.16-2.23,3.37-4.83.45-5.11.88-3.88,5.68,4.31-.7,5.77,0,6.05,2.86.3,3.18-.93,4.11-6,4.33-.15,1.14-.29,2.32-.47,3.71-1.67-3.77-1.06-5,2.44-5,1.92,0,2.9-.58,2.87-2.51,0-2.16-1.2-2.9-3.21-2.42-2.26.56-3.39-.28-3.35-2.56s-.66-5,3-5.18C18.1,8.24,19.35,8.3,19.67,8.3Z" transform="translate(-9.06 -1.95)"/></svg>