<svg id="Layer_1" data-name="Layer 1" xmlns="http://www.w3.org/2000/svg" viewBox="0 0 440 399.84"><defs><style>.cls-1{fill:#27b985;}</style></defs><path class="cls-1" d="M364.06,158.59c-19.36,13.59-35.46,25.63-52.67,35.6-1.4.81-17.43-16.92-16-19.28C305.55,159,318.48,145,333.62,126.6c-13.07-42-73.64-69.43-136.06-54.81-132.89,31-192.79,204-107.4,310.32,39.59,49.34,93.51,59.76,152.68,54.51,11-1,21.79-3.77,32.65-5.91,40.85-8.12,108.58-5.09,148,6.58a44.9,44.9,0,0,0,10.85,1.84c2.29.08,4.66-1.1,7.1-1.7q-22.27-35.34-44.62-70.76c2.07-1.18,4.06-2.36,6.13-3.55,23.71,29.33,47.5,58.73,74.09,91.67-38.41,4.07-68.55-9.23-99-25.26-10.93-5.76-26.52-6.65-39.08-4.58-38.56,6.43-76.45,20.61-115,22.31-112.5,5.1-190.43-75.79-186.81-189.1C39.78,175,101.39,91.59,180,64.7c69.36-23.78,133.92.3,169.82,62.86A53.43,53.43,0,0,0,364,143.3c59.1,42.91,71.73,133.33,26.08,188.43-37.16,44.91-91.45,45.5-118.85,4.88-14.33,8.05-28.3,16-42.33,23.93-8-16.62-17.51-32.72-23.56-50-3.84-11-2.74-23.71-3.84-35.68l-9.39-4.65c-10,14.7-21.79,28.51-29.54,44.32s-11.45,33.39-24.38,48.75c2.14-28.81,4.29-57.54,6.65-88.86-8-1.85-16.84-3.84-26.15-6.06,1.7-2.88,2.73-6.06,3.77-6.06,21.49.3,27.33-12.18,32.87-31.31,10.41-36,23.27-71.95,40.55-105.12C201.55,115,224.15,113,239,107c4.43,14.26,13.67,29,12.34,42.7C246.68,196.18,223.93,233,182.49,257c-9.31,5.39-17.73,12.33-26.52,18.61,1.85,2.37,3.62,4.73,5.47,7.09,4-3.39,7.46-8,12-10,9.53-4.29,21.64-12.26,29-9.38,6.72,2.73,10.12,17.35,12.26,27.33,4.21,19.35,6.5,39.15,9.53,58.8,5,1.1,10,2.14,14.92,3.25,14.62-27.85,29.18-55.7,48.53-92.63-2.29,23.34-4.8,37.67-4.95,52-.37,35,20.24,53.85,51.56,40,23.71-10.48,48.53-30.72,60.5-53.25C422,247.15,401,179.34,364.06,158.59ZM230.21,113.53c-56.36,28.43-53,84.94-69.73,136.06C222.16,227.13,256.14,158.88,230.21,113.53Z" transform="translate(-37 -55.69)"/></svg>